<svg xmlns="http://www.w3.org/2000/svg" version="1.1" xmlns:xlink="http://www.w3.org/1999/xlink" xmlns:svgjs="http://svgjs.dev/svgjs" width="1500" height="540" viewBox="0 0 1500 540"><g transform="matrix(1,0,0,1,0.15999999999996817,0.028928000000064458)"><svg viewBox="0 0 375 135" data-background-color="#f9f9f9" preserveAspectRatio="xMidYMid meet" height="540" width="1500" xmlns="http://www.w3.org/2000/svg" xmlns:xlink="http://www.w3.org/1999/xlink"><g id="tight-bounds" transform="matrix(1,0,0,1,-0.03976000000000113,-0.007232000000016114)"><svg viewBox="0 0 375.07953 135.014464" height="135.014464" width="375.07953"><g><svg></svg></g><g><svg viewBox="0 0 375.07953 135.014464" height="135.014464" width="375.07953"><g transform="matrix(1,0,0,1,-10.22024,-59.453509999999994)"><path d="M10.22 187.746v-128.292h375.08v128.292l-19.069 0 0-3.421h15.648v-121.45h-368.238v121.45h28.532l0 3.421z" fill="#030303" fill-rule="nonzero" stroke="none" stroke-width="1" stroke-linecap="butt" stroke-linejoin="miter" stroke-miterlimit="10" stroke-dasharray="" stroke-dashoffset="0" font-family="none" font-weight="none" font-size="none" text-anchor="none" style="mix-blend-mode: normal" data-fill-palette-color="tertiary"></path><g><path transform="translate(51.26247,191.05605) scale(0.43464,0.43464)" d="M28.5 2c-2.9-4.5-5.723-8.793-8.47-12.88-2.753-4.08-5.013-7.38-6.78-9.9-1.767-2.513-2.883-4.103-3.35-4.77v0h-0.25l-0.25 21.35c0 0.733 0.117 1.25 0.35 1.55 0.233 0.3 0.633 0.45 1.2 0.45v0l2.55-0.05 0.1 0.2-0.45 2.25c-0.367-0.033-1.117-0.073-2.25-0.12-1.133-0.053-2.15-0.08-3.05-0.08v0c-0.833 0-1.74 0.06-2.72 0.18-0.987 0.113-1.63 0.187-1.93 0.22v0l0.25-2.3c1.033-0.133 1.8-0.443 2.3-0.93 0.5-0.48 0.767-1.22 0.8-2.22v0l0.65-21.85c0-1.033-0.307-1.767-0.92-2.2-0.62-0.433-1.763-0.733-3.43-0.9v0l-0.15-0.25 0.4-1.85c0.3 0.033 0.95 0.083 1.95 0.15 1 0.067 1.783 0.1 2.35 0.1v0c0.7 0 1.383-0.027 2.05-0.08 0.667-0.047 1.1-0.087 1.3-0.12v0c2.467 3.833 4.943 7.583 7.43 11.25 2.48 3.667 4.553 6.683 6.22 9.05 1.667 2.367 2.717 3.867 3.15 4.5v0h0.25v-20.25c0-1.433-0.55-2.15-1.65-2.15v0l-1.9 0.05-0.1-0.2 0.45-2.25c0.333 0.033 0.967 0.073 1.9 0.12 0.933 0.053 1.883 0.08 2.85 0.08v0c0.867 0 1.827-0.057 2.88-0.17 1.047-0.12 1.737-0.197 2.07-0.23v0l-0.25 2.3c-1.167 0.167-2.017 0.49-2.55 0.97-0.533 0.487-0.817 1.213-0.85 2.18v0l-0.7 28.1zM49.26 0.6c-2.067 0-3.9-0.46-5.5-1.38-1.6-0.913-2.833-2.21-3.7-3.89-0.867-1.687-1.3-3.613-1.3-5.78v0c0-2.233 0.507-4.333 1.52-6.3 1.02-1.967 2.38-3.533 4.08-4.7 1.7-1.167 3.517-1.75 5.45-1.75v0c2.433 0 4.283 0.617 5.55 1.85 1.267 1.233 1.9 3.033 1.9 5.4v0c0 0.967-0.1 1.783-0.3 2.45v0l-0.65 0.6h-13.8c-0.033 3.233 0.607 5.723 1.92 7.47 1.32 1.753 3.163 2.63 5.53 2.63v0c1.867 0 3.9-0.517 6.1-1.55v0l0.3 0.1 0.55 1.45c-1.2 0.867-2.527 1.65-3.98 2.35-1.447 0.7-2.67 1.05-3.67 1.05zM42.71-14.75l9.05-0.45c0.5-0.067 0.833-0.183 1-0.35 0.167-0.167 0.25-0.5 0.25-1v0c0-1.333-0.36-2.35-1.08-3.05-0.713-0.7-1.737-1.05-3.07-1.05v0c-1.567 0-2.91 0.533-4.03 1.6-1.113 1.067-1.82 2.5-2.12 4.3zM69.91 0.6c-1.067 0-2.04-0.073-2.92-0.22-0.887-0.153-1.58-0.313-2.08-0.48-0.5-0.167-0.817-0.283-0.95-0.35v0l-0.15-0.35c0.1-0.5 0.217-1.533 0.35-3.1 0.133-1.567 0.217-2.767 0.25-3.6v0l1.75-0.25c0 2.2 0.367 3.75 1.1 4.65 0.733 0.9 1.983 1.35 3.75 1.35v0c1.267 0 2.333-0.283 3.2-0.85 0.867-0.567 1.3-1.267 1.3-2.1v0c0-0.833-0.39-1.593-1.17-2.28-0.787-0.68-2.33-1.637-4.63-2.87v0c-1.9-0.967-3.283-1.95-4.15-2.95-0.867-1-1.3-2.1-1.3-3.3v0c0-1.333 0.4-2.543 1.2-3.63 0.8-1.08 1.9-1.93 3.3-2.55 1.4-0.613 2.967-0.92 4.7-0.92v0c0.8 0 1.567 0.057 2.3 0.17 0.733 0.12 1.333 0.247 1.8 0.38 0.467 0.133 0.767 0.217 0.9 0.25v0l0.1 0.25c-0.067 0.333-0.217 1.09-0.45 2.27-0.233 1.187-0.4 2.463-0.5 3.83v0l-1.85 0.15c0-0.1 0.017-0.3 0.05-0.6 0.033-0.3 0.05-0.583 0.05-0.85v0c0-1.2-0.323-2.077-0.97-2.63-0.653-0.547-1.697-0.82-3.13-0.82v0c-1.133 0-2.09 0.267-2.87 0.8-0.787 0.533-1.18 1.183-1.18 1.95v0c0 0.8 0.343 1.55 1.03 2.25 0.68 0.7 1.787 1.45 3.32 2.25v0c2.7 1.433 4.543 2.64 5.53 3.62 0.98 0.987 1.47 2.113 1.47 3.38v0c0 1.267-0.417 2.45-1.25 3.55-0.833 1.1-1.957 1.973-3.37 2.62-1.42 0.653-2.93 0.98-4.53 0.98zM93.77 0.6c-2.267 0-3.867-0.46-4.8-1.38-0.933-0.913-1.4-2.47-1.4-4.67v0-12.3c0-0.9-0.2-1.533-0.6-1.9-0.4-0.367-1.15-0.567-2.25-0.6v0l-0.2-0.3 0.25-1.5c0.967-0.467 1.907-1.043 2.82-1.73 0.92-0.68 1.67-1.28 2.25-1.8 0.587-0.513 0.963-0.853 1.13-1.02v0l1 0.4c-0.033 0.167-0.083 0.567-0.15 1.2-0.067 0.633-0.15 1.483-0.25 2.55v0l7.35-0.15 0.15 0.15-0.45 2.65-7.25-0.15c-0.233 3.667-0.35 7.833-0.35 12.5v0c0 1.7 0.29 2.9 0.87 3.6 0.587 0.7 1.597 1.05 3.03 1.05v0c0.5 0 1-0.067 1.5-0.2 0.5-0.133 0.917-0.277 1.25-0.43 0.333-0.147 0.55-0.237 0.65-0.27v0l0.5 1.3c-0.2 0.167-0.627 0.483-1.28 0.95-0.647 0.467-1.347 0.923-2.1 1.37-0.747 0.453-1.303 0.68-1.67 0.68zM103.32 0.6l0.2-2.05c0.933-0.267 1.593-0.6 1.98-1 0.38-0.4 0.613-0.883 0.7-1.45 0.08-0.567 0.12-1.517 0.12-2.85v0-24.55c0-1.033-0.117-1.733-0.35-2.1-0.233-0.367-0.717-0.55-1.45-0.55v0c-0.167 0-0.55 0.033-1.15 0.1v0l-0.15-0.1 0.2-1.7c2.8-0.4 5.267-0.883 7.4-1.45v0l0.3 0.65c-0.367 0.567-0.69 4.133-0.97 10.7-0.287 6.567-0.43 13.517-0.43 20.85v0c0 1 0.133 1.717 0.4 2.15 0.267 0.433 0.717 0.65 1.35 0.65v0l1.75-0.1 0.1 0.2-0.4 2.15c-2.2-0.1-3.683-0.15-4.45-0.15v0c-1.133 0-2.85 0.2-5.15 0.6zM128.48 0.6c-2.067 0-3.9-0.46-5.5-1.38-1.6-0.913-2.833-2.21-3.7-3.89-0.867-1.687-1.3-3.613-1.3-5.78v0c0-2.233 0.507-4.333 1.52-6.3 1.02-1.967 2.38-3.533 4.08-4.7 1.7-1.167 3.517-1.75 5.45-1.75v0c2.433 0 4.283 0.617 5.55 1.85 1.267 1.233 1.9 3.033 1.9 5.4v0c0 0.967-0.1 1.783-0.3 2.45v0l-0.65 0.6h-13.8c-0.033 3.233 0.607 5.723 1.92 7.47 1.32 1.753 3.163 2.63 5.53 2.63v0c1.867 0 3.9-0.517 6.1-1.55v0l0.3 0.1 0.55 1.45c-1.2 0.867-2.527 1.65-3.98 2.35-1.447 0.7-2.67 1.05-3.67 1.05zM121.93-14.75l9.05-0.45c0.5-0.067 0.833-0.183 1-0.35 0.167-0.167 0.25-0.5 0.25-1v0c0-1.333-0.36-2.35-1.08-3.05-0.713-0.7-1.737-1.05-3.07-1.05v0c-1.567 0-2.91 0.533-4.03 1.6-1.113 1.067-1.82 2.5-2.12 4.3zM163.08 0.6c-2.6 0-4.083-1.183-4.45-3.55v0l-0.35-0.15c-3.467 2.367-5.55 3.55-6.25 3.55v0c-1.9 0-3.583-0.443-5.05-1.33-1.467-0.88-2.6-2.12-3.4-3.72-0.8-1.6-1.2-3.433-1.2-5.5v0c0-2.367 0.56-4.55 1.68-6.55 1.113-2 2.63-3.593 4.55-4.78 1.913-1.18 3.987-1.77 6.22-1.77v0c1.067 0 2.217 0.067 3.45 0.2v0-8.3c0-1.8-0.617-2.7-1.85-2.7v0c-0.233 0-0.483 0.023-0.75 0.07-0.267 0.053-0.433 0.097-0.5 0.13v0l0.2-1.85c1.433-0.2 2.917-0.467 4.45-0.8 1.533-0.333 2.517-0.55 2.95-0.65v0l0.3 0.65c-0.367 0.567-0.69 4.083-0.97 10.55-0.287 6.467-0.43 13.35-0.43 20.65v0c0 0.733 0.183 1.3 0.55 1.7 0.367 0.4 0.867 0.6 1.5 0.6v0c0.467 0 0.927-0.093 1.38-0.28 0.447-0.18 0.813-0.37 1.1-0.57 0.28-0.2 0.453-0.333 0.52-0.4v0l0.7 0.8c-0.1 0.167-0.35 0.523-0.75 1.07-0.4 0.553-0.923 1.13-1.57 1.73-0.653 0.6-1.33 1-2.03 1.2zM152.83-2.8c0.7 0 1.46-0.2 2.28-0.6 0.813-0.4 1.503-0.81 2.07-1.23 0.567-0.413 0.933-0.687 1.1-0.82v0-13.7c-0.1-0.067-0.35-0.193-0.75-0.38-0.4-0.18-0.957-0.353-1.67-0.52-0.72-0.167-1.53-0.25-2.43-0.25v0c-2.233 0-3.99 0.757-5.27 2.27-1.287 1.52-1.93 3.597-1.93 6.23v0c0 1.667 0.293 3.183 0.88 4.55 0.58 1.367 1.38 2.45 2.4 3.25 1.013 0.8 2.12 1.2 3.32 1.2zM184.24 0.6l0.3-2.3c1.533-0.3 2.567-0.743 3.1-1.33 0.533-0.58 0.8-1.57 0.8-2.97v0l0.05-21c0-1.067-0.123-1.783-0.37-2.15-0.253-0.367-0.747-0.55-1.48-0.55v0l-1.7 0.1-0.1-0.2 0.35-2.2c0.433 0 0.767 0.017 1 0.05v0c2 0.067 3.517 0.1 4.55 0.1v0c1.4 0 3.183-0.15 5.35-0.45v0l-0.2 2.25c-1 0.167-1.707 0.367-2.12 0.6-0.42 0.233-0.703 0.623-0.85 1.17-0.153 0.553-0.263 1.463-0.33 2.73v0l-0.3 8.1 8.4 0.05c2.1 0 4.567-0.167 7.4-0.5v0l0.05-9.1c0-1.067-0.123-1.783-0.37-2.15-0.253-0.367-0.747-0.55-1.48-0.55v0c-0.467 0-1.033 0.033-1.7 0.1v0l-0.1-0.2 0.35-2.2c0.367 0.033 1.033 0.067 2 0.1 0.967 0.033 1.933 0.05 2.9 0.05v0c1.6 0 3.6-0.15 6-0.45v0l-0.2 2.25c-1.233 0.167-2.067 0.44-2.5 0.82-0.433 0.387-0.667 1.063-0.7 2.03v0c-0.2 3.767-0.367 7.807-0.5 12.12-0.133 4.32-0.2 7.58-0.2 9.78v0c0 1.233 0.15 2.057 0.45 2.47 0.3 0.42 0.883 0.63 1.75 0.63v0c0.4 0 1.15-0.05 2.25-0.15v0l0.1 0.2-0.45 2.3c-0.467 0-0.833-0.017-1.1-0.05v0c-2.2-0.067-3.883-0.1-5.05-0.1v0l-5.75 0.1 0.45-2.25c1.1-0.033 1.91-0.183 2.43-0.45 0.513-0.267 0.87-0.767 1.07-1.5 0.2-0.733 0.3-1.867 0.3-3.4v0-7.55l-7.6-0.05c-0.833 0.033-2 0.09-3.5 0.17-1.5 0.087-3.1 0.213-4.8 0.38v0l-0.2 8.95c0 1.367 0.15 2.273 0.45 2.72 0.3 0.453 0.883 0.68 1.75 0.68v0c0.4 0 1.15-0.05 2.25-0.15v0l0.1 0.2-0.45 2.3c-0.3-0.033-0.867-0.067-1.7-0.1-0.833-0.033-1.683-0.05-2.55-0.05v0c-1.533 0-3.173 0.067-4.92 0.2-1.753 0.133-2.647 0.267-2.68 0.4zM231.55 0.6c-1.9 0-3.583-0.467-5.05-1.4-1.467-0.933-2.607-2.243-3.42-3.93-0.82-1.68-1.23-3.603-1.23-5.77v0c0-2.333 0.51-4.477 1.53-6.43 1.013-1.947 2.403-3.48 4.17-4.6 1.767-1.113 3.733-1.67 5.9-1.67v0c1.867 0 3.543 0.467 5.03 1.4 1.48 0.933 2.63 2.24 3.45 3.92 0.813 1.687 1.22 3.613 1.22 5.78v0c0 2.333-0.507 4.473-1.52 6.42-1.02 1.953-2.413 3.49-4.18 4.61-1.767 1.113-3.733 1.67-5.9 1.67zM232.95-1.85c1.867 0 3.35-0.76 4.45-2.28 1.1-1.513 1.65-3.57 1.65-6.17v0c0-1.967-0.3-3.727-0.9-5.28-0.6-1.547-1.44-2.753-2.52-3.62-1.087-0.867-2.313-1.3-3.68-1.3v0c-1.867 0-3.35 0.767-4.45 2.3-1.1 1.533-1.65 3.617-1.65 6.25v0c0 1.967 0.3 3.717 0.9 5.25 0.6 1.533 1.433 2.723 2.5 3.57 1.067 0.853 2.3 1.28 3.7 1.28zM263.21-1.45c1-0.267 1.717-0.66 2.15-1.18 0.433-0.513 0.65-1.203 0.65-2.07v0l0.2-9.9c0-1.667-0.36-2.95-1.08-3.85-0.713-0.9-1.737-1.35-3.07-1.35v0c-1.067 0-2.15 0.273-3.25 0.82-1.1 0.553-2.067 1.147-2.9 1.78v0c-0.3 6.9-0.45 11-0.45 12.3v0c0 1.033 0.133 1.757 0.4 2.17 0.267 0.42 0.733 0.63 1.4 0.63v0c0.367 0 0.717-0.017 1.05-0.05 0.333-0.033 0.567-0.05 0.7-0.05v0l0.1 0.2-0.45 2.15c-0.3-0.033-0.883-0.067-1.75-0.1-0.867-0.033-1.8-0.05-2.8-0.05v0c-1.1 0-2.117 0.017-3.05 0.05-0.933 0.033-1.567 0.05-1.9 0.05v0l0.3-2.05c0.967-0.1 1.64-0.35 2.02-0.75 0.387-0.4 0.58-1.067 0.58-2v0-12.2c0-1.133-0.183-1.927-0.55-2.38-0.367-0.447-1-0.67-1.9-0.67v0h-0.55l-0.15-0.2 0.15-1.65c1.433-0.233 2.857-0.51 4.27-0.83 1.42-0.313 2.33-0.52 2.73-0.62v0l0.3 0.4c-0.067 0.2-0.167 0.623-0.3 1.27-0.133 0.653-0.217 1.33-0.25 2.03v0l0.1 0.15c3.733-2.533 6.183-3.8 7.35-3.8v0c1.6 0 2.95 0.34 4.05 1.02 1.1 0.687 1.883 1.663 2.35 2.93v0c1.2-0.867 2.55-1.743 4.05-2.63 1.5-0.88 2.667-1.32 3.5-1.32v0c2.1 0 3.767 0.583 5 1.75 1.233 1.167 1.85 2.733 1.85 4.7v0c0 0.333-0.1 1.867-0.3 4.6v0c-0.267 3.467-0.4 5.883-0.4 7.25v0c0 1.033 0.133 1.757 0.4 2.17 0.267 0.42 0.733 0.63 1.4 0.63v0c0.367 0 0.717-0.017 1.05-0.05 0.333-0.033 0.567-0.05 0.7-0.05v0l0.1 0.2-0.45 2.15c-0.3-0.033-0.883-0.067-1.75-0.1-0.867-0.033-1.8-0.05-2.8-0.05v0c-0.867 0-1.827 0.043-2.88 0.13-1.047 0.08-1.737 0.137-2.07 0.17v0l0.25-2.05c0.967-0.167 1.65-0.467 2.05-0.9 0.4-0.433 0.6-1.117 0.6-2.05v0l0.2-9.9c0-1.667-0.36-2.95-1.08-3.85-0.713-0.9-1.737-1.35-3.07-1.35v0c-1.733 0-3.75 0.833-6.05 2.5v0l-0.55 12.4c0 0.967 0.133 1.673 0.4 2.12 0.267 0.453 0.717 0.68 1.35 0.68v0c0.367 0 0.717-0.017 1.05-0.05 0.333-0.033 0.567-0.05 0.7-0.05v0l0.1 0.2-0.4 2.15c-0.3-0.033-0.867-0.067-1.7-0.1-0.833-0.033-1.75-0.05-2.75-0.05v0c-0.867 0-1.86 0.083-2.98 0.25-1.113 0.167-1.837 0.283-2.17 0.35v0zM302.86 0.6c-2.067 0-3.9-0.46-5.5-1.38-1.6-0.913-2.833-2.21-3.7-3.89-0.867-1.687-1.3-3.613-1.3-5.78v0c0-2.233 0.51-4.333 1.53-6.3 1.013-1.967 2.37-3.533 4.07-4.7 1.7-1.167 3.517-1.75 5.45-1.75v0c2.433 0 4.283 0.617 5.55 1.85 1.267 1.233 1.9 3.033 1.9 5.4v0c0 0.967-0.1 1.783-0.3 2.45v0l-0.65 0.6h-13.8c-0.033 3.233 0.61 5.723 1.93 7.47 1.313 1.753 3.153 2.63 5.52 2.63v0c1.867 0 3.9-0.517 6.1-1.55v0l0.3 0.1 0.55 1.45c-1.2 0.867-2.523 1.65-3.97 2.35-1.453 0.7-2.68 1.05-3.68 1.05zM296.31-14.75l9.05-0.45c0.5-0.067 0.833-0.183 1-0.35 0.167-0.167 0.25-0.5 0.25-1v0c0-1.333-0.357-2.35-1.07-3.05-0.72-0.7-1.747-1.05-3.08-1.05v0c-1.567 0-2.907 0.533-4.02 1.6-1.12 1.067-1.83 2.5-2.13 4.3zM323.52 0.6c-1.067 0-2.043-0.073-2.93-0.22-0.88-0.153-1.57-0.313-2.07-0.48-0.5-0.167-0.817-0.283-0.95-0.35v0l-0.15-0.35c0.1-0.5 0.217-1.533 0.35-3.1 0.133-1.567 0.217-2.767 0.25-3.6v0l1.75-0.25c0 2.2 0.367 3.75 1.1 4.65 0.733 0.9 1.983 1.35 3.75 1.35v0c1.267 0 2.333-0.283 3.2-0.85 0.867-0.567 1.3-1.267 1.3-2.1v0c0-0.833-0.393-1.593-1.18-2.28-0.78-0.68-2.32-1.637-4.62-2.87v0c-1.9-0.967-3.283-1.95-4.15-2.95-0.867-1-1.3-2.1-1.3-3.3v0c0-1.333 0.4-2.543 1.2-3.63 0.8-1.08 1.9-1.93 3.3-2.55 1.4-0.613 2.967-0.92 4.7-0.92v0c0.8 0 1.567 0.057 2.3 0.17 0.733 0.12 1.333 0.247 1.8 0.38 0.467 0.133 0.767 0.217 0.9 0.25v0l0.1 0.25c-0.067 0.333-0.217 1.09-0.45 2.27-0.233 1.187-0.4 2.463-0.5 3.83v0l-1.85 0.15c0-0.1 0.017-0.3 0.05-0.6 0.033-0.3 0.05-0.583 0.05-0.85v0c0-1.2-0.327-2.077-0.98-2.63-0.647-0.547-1.687-0.82-3.12-0.82v0c-1.133 0-2.093 0.267-2.88 0.8-0.78 0.533-1.17 1.183-1.17 1.95v0c0 0.8 0.34 1.55 1.02 2.25 0.687 0.7 1.797 1.45 3.33 2.25v0c2.7 1.433 4.54 2.64 5.52 3.62 0.987 0.987 1.48 2.113 1.48 3.38v0c0 1.267-0.417 2.45-1.25 3.55-0.833 1.1-1.96 1.973-3.38 2.62-1.413 0.653-2.92 0.98-4.52 0.98zM340.12 7.85l-0.9-0.75v-0.5c1.167-0.8 2.117-1.75 2.85-2.85 0.733-1.1 1.1-2.167 1.1-3.2v0c0-0.667-0.15-1.31-0.45-1.93-0.3-0.613-0.683-1.137-1.15-1.57v0l0.1-0.7c1.133-0.867 2.1-1.3 2.9-1.3v0c0.733 0 1.343 0.34 1.83 1.02 0.48 0.687 0.72 1.647 0.72 2.88v0c0 1.733-0.7 3.377-2.1 4.93-1.4 1.547-3.033 2.87-4.9 3.97zM389.28 0.8c-0.833 0-1.723-0.427-2.67-1.28-0.953-0.847-1.83-2.003-2.63-3.47v0l-5.35-9.7h-4.15l-0.15 7.45c0 1.267 0.083 2.173 0.25 2.72 0.167 0.553 0.483 0.92 0.95 1.1 0.467 0.187 1.267 0.28 2.4 0.28v0l0.1 0.2-0.45 2.1c-0.4-0.033-1.2-0.067-2.4-0.1-1.2-0.033-2.45-0.05-3.75-0.05v0c-1.167 0-2.2 0.017-3.1 0.05-0.9 0.033-1.5 0.067-1.8 0.1v0l0.45-2.25c1.067-0.133 1.867-0.317 2.4-0.55 0.533-0.233 0.9-0.61 1.1-1.13 0.2-0.513 0.3-1.27 0.3-2.27v0l0.05-21c0-1.067-0.123-1.783-0.37-2.15-0.253-0.367-0.747-0.55-1.48-0.55v0c-0.333 0-0.667 0.017-1 0.05-0.333 0.033-0.567 0.05-0.7 0.05v0l-0.1-0.2 0.35-2.2c0.4 0.033 1.15 0.067 2.25 0.1 1.1 0.033 2.2 0.05 3.3 0.05v0c1.133 0 2.327-0.027 3.58-0.08 1.247-0.047 2.103-0.087 2.57-0.12v0c3.1 0 5.55 0.7 7.35 2.1 1.8 1.4 2.7 3.317 2.7 5.75v0c0 2-0.64 3.833-1.92 5.5-1.287 1.667-3.097 3.033-5.43 4.1v0l5.5 8.7c0.967 1.6 1.91 2.707 2.83 3.32 0.913 0.62 2.037 0.93 3.37 0.93v0l0.2 0.2-0.3 1.7zM379.73-15.95c0 0.1 0.5-0.117 1.5-0.65 1-0.533 1.9-1.35 2.7-2.45 0.8-1.1 1.2-2.517 1.2-4.25v0c0-4.4-3.05-6.6-9.15-6.6v0c-0.333 0-0.557 0.073-0.67 0.22-0.12 0.153-0.197 0.463-0.23 0.93v0c-0.3 5.1-0.467 9.2-0.5 12.3v0zM406.24 0.6c-1.9 0-3.583-0.467-5.05-1.4-1.467-0.933-2.61-2.243-3.43-3.93-0.813-1.68-1.22-3.603-1.22-5.77v0c0-2.333 0.507-4.477 1.52-6.43 1.02-1.947 2.413-3.48 4.18-4.6 1.767-1.113 3.733-1.67 5.9-1.67v0c1.867 0 3.54 0.467 5.02 1.4 1.487 0.933 2.637 2.24 3.45 3.92 0.82 1.687 1.23 3.613 1.23 5.78v0c0 2.333-0.51 4.473-1.53 6.42-1.013 1.953-2.403 3.49-4.17 4.61-1.767 1.113-3.733 1.67-5.9 1.67zM407.64-1.85c1.867 0 3.35-0.76 4.45-2.28 1.1-1.513 1.65-3.57 1.65-6.17v0c0-1.967-0.3-3.727-0.9-5.28-0.6-1.547-1.443-2.753-2.53-3.62-1.08-0.867-2.303-1.3-3.67-1.3v0c-1.867 0-3.35 0.767-4.45 2.3-1.1 1.533-1.65 3.617-1.65 6.25v0c0 1.967 0.3 3.717 0.9 5.25 0.6 1.533 1.433 2.723 2.5 3.57 1.067 0.853 2.3 1.28 3.7 1.28zM433.15 0.6c-1.9 0-3.583-0.467-5.05-1.4-1.467-0.933-2.61-2.243-3.43-3.93-0.813-1.68-1.22-3.603-1.22-5.77v0c0-2.333 0.507-4.477 1.52-6.43 1.02-1.947 2.413-3.48 4.18-4.6 1.767-1.113 3.733-1.67 5.9-1.67v0c1.867 0 3.54 0.467 5.02 1.4 1.487 0.933 2.637 2.24 3.45 3.92 0.82 1.687 1.23 3.613 1.23 5.78v0c0 2.333-0.51 4.473-1.53 6.42-1.013 1.953-2.403 3.49-4.17 4.61-1.767 1.113-3.733 1.67-5.9 1.67zM434.55-1.85c1.867 0 3.35-0.76 4.45-2.28 1.1-1.513 1.65-3.57 1.65-6.17v0c0-1.967-0.3-3.727-0.9-5.28-0.6-1.547-1.443-2.753-2.53-3.62-1.08-0.867-2.303-1.3-3.67-1.3v0c-1.867 0-3.35 0.767-4.45 2.3-1.1 1.533-1.65 3.617-1.65 6.25v0c0 1.967 0.3 3.717 0.9 5.25 0.6 1.533 1.433 2.723 2.5 3.57 1.067 0.853 2.3 1.28 3.7 1.28zM458.85 0.6c-2.267 0-3.867-0.46-4.8-1.38-0.933-0.913-1.4-2.47-1.4-4.67v0-12.3c0-0.9-0.2-1.533-0.6-1.9-0.4-0.367-1.15-0.567-2.25-0.6v0l-0.2-0.3 0.25-1.5c0.967-0.467 1.91-1.043 2.83-1.73 0.913-0.68 1.663-1.28 2.25-1.8 0.58-0.513 0.953-0.853 1.12-1.02v0l1 0.4c-0.033 0.167-0.083 0.567-0.15 1.2-0.067 0.633-0.15 1.483-0.25 2.55v0l7.35-0.15 0.15 0.15-0.45 2.65-7.25-0.15c-0.233 3.667-0.35 7.833-0.35 12.5v0c0 1.7 0.293 2.9 0.88 3.6 0.58 0.7 1.587 1.05 3.02 1.05v0c0.5 0 1-0.067 1.5-0.2 0.5-0.133 0.917-0.277 1.25-0.43 0.333-0.147 0.55-0.237 0.65-0.27v0l0.5 1.3c-0.2 0.167-0.623 0.483-1.27 0.95-0.653 0.467-1.353 0.923-2.1 1.37-0.753 0.453-1.313 0.68-1.68 0.68zM479.36 0.6c-2.067 0-3.9-0.46-5.5-1.38-1.6-0.913-2.833-2.21-3.7-3.89-0.867-1.687-1.3-3.613-1.3-5.78v0c0-2.233 0.507-4.333 1.52-6.3 1.02-1.967 2.38-3.533 4.08-4.7 1.7-1.167 3.517-1.75 5.45-1.75v0c2.433 0 4.283 0.617 5.55 1.85 1.267 1.233 1.9 3.033 1.9 5.4v0c0 0.967-0.1 1.783-0.3 2.45v0l-0.65 0.6h-13.8c-0.033 3.233 0.607 5.723 1.92 7.47 1.32 1.753 3.163 2.63 5.53 2.63v0c1.867 0 3.9-0.517 6.1-1.55v0l0.3 0.1 0.55 1.45c-1.2 0.867-2.527 1.65-3.98 2.35-1.447 0.7-2.67 1.05-3.67 1.05zM472.81-14.75l9.05-0.45c0.5-0.067 0.833-0.183 1-0.35 0.167-0.167 0.25-0.5 0.25-1v0c0-1.333-0.36-2.35-1.08-3.05-0.713-0.7-1.737-1.05-3.07-1.05v0c-1.567 0-2.91 0.533-4.03 1.6-1.113 1.067-1.82 2.5-2.12 4.3zM513.96 0.6c-2.6 0-4.083-1.183-4.45-3.55v0l-0.35-0.15c-3.467 2.367-5.55 3.55-6.25 3.55v0c-1.9 0-3.583-0.443-5.05-1.33-1.467-0.88-2.6-2.12-3.4-3.72-0.8-1.6-1.2-3.433-1.2-5.5v0c0-2.367 0.56-4.55 1.68-6.55 1.113-2 2.63-3.593 4.55-4.78 1.913-1.18 3.987-1.77 6.22-1.77v0c1.067 0 2.217 0.067 3.45 0.2v0-8.3c0-1.8-0.617-2.7-1.85-2.7v0c-0.233 0-0.483 0.023-0.75 0.07-0.267 0.053-0.433 0.097-0.5 0.13v0l0.2-1.85c1.433-0.2 2.917-0.467 4.45-0.8 1.533-0.333 2.517-0.55 2.95-0.65v0l0.3 0.65c-0.367 0.567-0.69 4.083-0.97 10.55-0.287 6.467-0.43 13.35-0.43 20.65v0c0 0.733 0.183 1.3 0.55 1.7 0.367 0.4 0.867 0.6 1.5 0.6v0c0.467 0 0.927-0.093 1.38-0.28 0.447-0.18 0.813-0.37 1.1-0.57 0.28-0.2 0.453-0.333 0.52-0.4v0l0.7 0.8c-0.1 0.167-0.35 0.523-0.75 1.07-0.4 0.553-0.923 1.13-1.57 1.73-0.653 0.6-1.33 1-2.03 1.2zM503.71-2.8c0.7 0 1.46-0.2 2.28-0.6 0.813-0.4 1.503-0.81 2.07-1.23 0.567-0.413 0.933-0.687 1.1-0.82v0-13.7c-0.1-0.067-0.35-0.193-0.75-0.38-0.4-0.18-0.957-0.353-1.67-0.52-0.72-0.167-1.53-0.25-2.43-0.25v0c-2.233 0-3.99 0.757-5.27 2.27-1.287 1.52-1.93 3.597-1.93 6.23v0c0 1.667 0.293 3.183 0.88 4.55 0.58 1.367 1.38 2.45 2.4 3.25 1.013 0.8 2.12 1.2 3.32 1.2zM548.07 0.6c-0.5-0.067-1.557-0.183-3.17-0.35-1.62-0.167-2.963-0.25-4.03-0.25v0c-1.033 0-2.157 0.083-3.37 0.25-1.22 0.167-2.013 0.283-2.38 0.35v0l0.3-2.3c1.533-0.3 2.567-0.743 3.1-1.33 0.533-0.58 0.8-1.57 0.8-2.97v0l0.05-21c0-1.067-0.123-1.783-0.37-2.15-0.253-0.367-0.747-0.55-1.48-0.55v0c-0.333 0-0.667 0.017-1 0.05-0.333 0.033-0.567 0.05-0.7 0.05v0l-0.1-0.2 0.35-2.2c0.367 0.033 1.067 0.067 2.1 0.1 1.033 0.033 2.083 0.05 3.15 0.05v0c1.433 0 2.917-0.027 4.45-0.08 1.533-0.047 2.583-0.087 3.15-0.12v0c3.2 0 6.05 0.623 8.55 1.87 2.5 1.253 4.443 3.013 5.83 5.28 1.38 2.267 2.07 4.867 2.07 7.8v0c0 3.267-0.767 6.25-2.3 8.95-1.533 2.7-3.617 4.833-6.25 6.4-2.633 1.567-5.55 2.35-8.75 2.35zM545.47-29.6c-0.7 0-1.167 0.073-1.4 0.22-0.233 0.153-0.367 0.447-0.4 0.88v0c-0.5 12.833-0.75 20.15-0.75 21.95v0c0 1.267 0.177 2.217 0.53 2.85 0.347 0.633 0.963 1.083 1.85 1.35 0.88 0.267 2.187 0.4 3.92 0.4v0c3.6 0 6.433-1.243 8.5-3.73 2.067-2.48 3.1-5.887 3.1-10.22v0c0-4.4-1.323-7.783-3.97-10.15-2.653-2.367-6.447-3.55-11.38-3.55zM572.33-1.8c1-0.1 1.667-0.427 2-0.98 0.333-0.547 0.5-1.603 0.5-3.17v0-11c0-1.1-0.15-1.883-0.45-2.35-0.3-0.467-0.783-0.7-1.45-0.7v0c-0.267 0-0.493 0.017-0.68 0.05-0.18 0.033-0.303 0.067-0.37 0.1v0l-0.25-0.35 0.15-1.55c1.267-0.233 2.607-0.517 4.02-0.85 1.42-0.333 2.33-0.55 2.73-0.65v0l0.35 0.3c-0.067 0.3-0.167 0.99-0.3 2.07-0.133 1.087-0.183 2.113-0.15 3.08v0l0.2 0.15c1-1.567 2.173-2.85 3.52-3.85 1.353-1 2.53-1.5 3.53-1.5v0c0.467 0 0.823 0.023 1.07 0.07 0.253 0.053 0.413 0.097 0.48 0.13v0l0.15 0.2c-0.067 0.467-0.21 1.457-0.43 2.97-0.213 1.52-0.337 2.913-0.37 4.18v0l-1.95 0.15c0-1.367-0.093-2.277-0.28-2.73-0.18-0.447-0.537-0.67-1.07-0.67v0c-0.733 0-1.517 0.307-2.35 0.92-0.833 0.62-1.6 1.447-2.3 2.48v0c-0.033 0.967-0.1 2.567-0.2 4.8-0.1 2.233-0.167 4.033-0.2 5.4v0c0 1.133 0.167 1.9 0.5 2.3 0.333 0.4 0.967 0.6 1.9 0.6v0c0.433 0 0.867-0.017 1.3-0.05 0.433-0.033 0.733-0.05 0.9-0.05v0l0.05 0.2-0.45 2.2c-0.333 0-1-0.017-2-0.05-1-0.033-2.033-0.05-3.1-0.05v0c-1.233 0-2.35 0.027-3.35 0.08-1 0.047-1.633 0.087-1.9 0.12v0zM602.33 0.6c-2.067 0-3.9-0.46-5.5-1.38-1.6-0.913-2.833-2.21-3.7-3.89-0.867-1.687-1.3-3.613-1.3-5.78v0c0-2.233 0.51-4.333 1.53-6.3 1.013-1.967 2.37-3.533 4.07-4.7 1.7-1.167 3.517-1.75 5.45-1.75v0c2.433 0 4.283 0.617 5.55 1.85 1.267 1.233 1.9 3.033 1.9 5.4v0c0 0.967-0.1 1.783-0.3 2.45v0l-0.65 0.6h-13.8c-0.033 3.233 0.61 5.723 1.93 7.47 1.313 1.753 3.153 2.63 5.52 2.63v0c1.867 0 3.9-0.517 6.1-1.55v0l0.3 0.1 0.55 1.45c-1.2 0.867-2.523 1.65-3.97 2.35-1.453 0.7-2.68 1.05-3.68 1.05zM595.78-14.75l9.05-0.45c0.5-0.067 0.833-0.183 1-0.35 0.167-0.167 0.25-0.5 0.25-1v0c0-1.333-0.357-2.35-1.07-3.05-0.72-0.7-1.747-1.05-3.08-1.05v0c-1.567 0-2.907 0.533-4.02 1.6-1.12 1.067-1.83 2.5-2.13 4.3zM633.04 0.6c-2.7 0-4.183-1.35-4.45-4.05v0l-0.2-0.05c-1.2 1.2-2.293 2.15-3.28 2.85-0.98 0.7-1.72 1.05-2.22 1.05v0c-1.867 0-3.4-0.583-4.6-1.75-1.2-1.167-1.8-2.65-1.8-4.45v0c0-0.967 0.24-1.817 0.72-2.55 0.487-0.733 1.13-1.217 1.93-1.45v0l9.5-2.6 0.05-2.2c0-1.667-0.383-2.967-1.15-3.9-0.767-0.933-1.85-1.4-3.25-1.4v0c-0.933 0-1.917 0.217-2.95 0.65-1.033 0.433-2.05 1.05-3.05 1.85v0l-0.25-0.15-0.6-2.15c1.567-0.9 3.14-1.71 4.72-2.43 1.587-0.713 2.73-1.07 3.43-1.07v0c2.167 0 3.867 0.567 5.1 1.7 1.233 1.133 1.85 2.717 1.85 4.75v0c0 0.733-0.117 2.233-0.35 4.5v0c-0.367 3.667-0.55 6-0.55 7v0c0 0.733 0.183 1.3 0.55 1.7 0.367 0.4 0.867 0.6 1.5 0.6v0c0.533 0 1.083-0.127 1.65-0.38 0.567-0.247 1.017-0.537 1.35-0.87v0l0.7 0.8c-0.5 0.833-1.143 1.64-1.93 2.42-0.78 0.787-1.587 1.313-2.42 1.58zM623.74-3c0.633 0 1.373-0.227 2.22-0.68 0.853-0.447 1.63-1.02 2.33-1.72v0l0.25-5.1-6.8 2.05c-0.967 0.3-1.45 1-1.45 2.1v0c0 0.967 0.323 1.767 0.97 2.4 0.653 0.633 1.48 0.95 2.48 0.95zM656-1.45c1-0.267 1.717-0.66 2.15-1.18 0.433-0.513 0.65-1.203 0.65-2.07v0l0.2-9.9c0-1.667-0.36-2.95-1.08-3.85-0.713-0.9-1.737-1.35-3.07-1.35v0c-1.067 0-2.15 0.273-3.25 0.82-1.1 0.553-2.067 1.147-2.9 1.78v0c-0.3 6.9-0.45 11-0.45 12.3v0c0 1.033 0.133 1.757 0.4 2.17 0.267 0.42 0.733 0.63 1.4 0.63v0c0.367 0 0.717-0.017 1.05-0.05 0.333-0.033 0.567-0.05 0.7-0.05v0l0.1 0.2-0.45 2.15c-0.3-0.033-0.883-0.067-1.75-0.1-0.867-0.033-1.8-0.05-2.8-0.05v0c-1.1 0-2.117 0.017-3.05 0.05-0.933 0.033-1.567 0.05-1.9 0.05v0l0.3-2.05c0.967-0.1 1.64-0.35 2.02-0.75 0.387-0.4 0.58-1.067 0.58-2v0-12.2c0-1.133-0.183-1.927-0.55-2.38-0.367-0.447-1-0.67-1.9-0.67v0h-0.55l-0.15-0.2 0.15-1.65c1.433-0.233 2.857-0.51 4.27-0.83 1.42-0.313 2.33-0.52 2.73-0.62v0l0.3 0.4c-0.067 0.2-0.167 0.623-0.3 1.27-0.133 0.653-0.217 1.33-0.25 2.03v0l0.1 0.15c3.733-2.533 6.183-3.8 7.35-3.8v0c1.6 0 2.95 0.34 4.05 1.02 1.1 0.687 1.883 1.663 2.35 2.93v0c1.2-0.867 2.55-1.743 4.05-2.63 1.5-0.88 2.667-1.32 3.5-1.32v0c2.1 0 3.767 0.583 5 1.75 1.233 1.167 1.85 2.733 1.85 4.7v0c0 0.333-0.1 1.867-0.3 4.6v0c-0.267 3.467-0.4 5.883-0.4 7.25v0c0 1.033 0.133 1.757 0.4 2.17 0.267 0.42 0.733 0.63 1.4 0.63v0c0.367 0 0.717-0.017 1.05-0.05 0.333-0.033 0.567-0.05 0.7-0.05v0l0.1 0.2-0.45 2.15c-0.3-0.033-0.883-0.067-1.75-0.1-0.867-0.033-1.8-0.05-2.8-0.05v0c-0.867 0-1.827 0.043-2.88 0.13-1.047 0.08-1.737 0.137-2.07 0.17v0l0.25-2.05c0.967-0.167 1.65-0.467 2.05-0.9 0.4-0.433 0.6-1.117 0.6-2.05v0l0.2-9.9c0-1.667-0.36-2.95-1.08-3.85-0.713-0.9-1.737-1.35-3.07-1.35v0c-1.733 0-3.75 0.833-6.05 2.5v0l-0.55 12.4c0 0.967 0.133 1.673 0.4 2.12 0.267 0.453 0.717 0.68 1.35 0.68v0c0.367 0 0.717-0.017 1.05-0.05 0.333-0.033 0.567-0.05 0.7-0.05v0l0.1 0.2-0.4 2.15c-0.3-0.033-0.867-0.067-1.7-0.1-0.833-0.033-1.75-0.05-2.75-0.05v0c-0.867 0-1.86 0.083-2.98 0.25-1.113 0.167-1.837 0.283-2.17 0.35v0zM691.9 0.6c-1.067 0-2.04-0.073-2.92-0.22-0.887-0.153-1.58-0.313-2.08-0.48-0.5-0.167-0.817-0.283-0.95-0.35v0l-0.15-0.35c0.1-0.5 0.217-1.533 0.35-3.1 0.133-1.567 0.217-2.767 0.25-3.6v0l1.75-0.25c0 2.2 0.367 3.75 1.1 4.65 0.733 0.9 1.983 1.35 3.75 1.35v0c1.267 0 2.333-0.283 3.2-0.85 0.867-0.567 1.3-1.267 1.3-2.1v0c0-0.833-0.39-1.593-1.17-2.28-0.787-0.68-2.33-1.637-4.63-2.87v0c-1.9-0.967-3.283-1.95-4.15-2.95-0.867-1-1.3-2.1-1.3-3.3v0c0-1.333 0.4-2.543 1.2-3.63 0.8-1.08 1.9-1.93 3.3-2.55 1.4-0.613 2.967-0.92 4.7-0.92v0c0.8 0 1.567 0.057 2.3 0.17 0.733 0.12 1.333 0.247 1.8 0.38 0.467 0.133 0.767 0.217 0.9 0.25v0l0.1 0.25c-0.067 0.333-0.217 1.09-0.45 2.27-0.233 1.187-0.4 2.463-0.5 3.83v0l-1.85 0.15c0-0.1 0.017-0.3 0.05-0.6 0.033-0.3 0.05-0.583 0.05-0.85v0c0-1.2-0.323-2.077-0.97-2.63-0.653-0.547-1.697-0.82-3.13-0.82v0c-1.133 0-2.09 0.267-2.87 0.8-0.787 0.533-1.18 1.183-1.18 1.95v0c0 0.8 0.343 1.55 1.03 2.25 0.68 0.7 1.787 1.45 3.32 2.25v0c2.7 1.433 4.543 2.64 5.53 3.62 0.98 0.987 1.47 2.113 1.47 3.38v0c0 1.267-0.417 2.45-1.25 3.55-0.833 1.1-1.957 1.973-3.37 2.62-1.42 0.653-2.93 0.98-4.53 0.98z" fill="#030303" fill-rule="nonzero" stroke="none" stroke-width="1" stroke-linecap="butt" stroke-linejoin="miter" stroke-miterlimit="10" stroke-dasharray="" stroke-dashoffset="0" font-family="none" font-weight="none" font-size="none" text-anchor="none" style="mix-blend-mode: normal" data-fill-palette-color="secondary" id="text-1"></path></g></g><g transform="matrix(1,0,0,1,29.33176499999999,43.88457298688222)"><svg viewBox="0 0 316.416 47.245318026235566" height="47.245318026235566" width="316.416"><g><svg viewBox="0 0 395.52236057810524 59.056999999999995" height="47.245318026235566" width="316.416"><g><svg viewBox="0 0 395.52236057810524 59.056999999999995" height="59.056999999999995" width="395.52236057810524"><g id="textblocktransform"><svg viewBox="0 0 395.52236057810524 59.056999999999995" height="59.056999999999995" width="395.52236057810524" id="textblock"><g><svg viewBox="0 0 395.52236057810524 59.056999999999995" height="59.056999999999995" width="395.52236057810524"><g><svg><g></g><g></g></svg></g><g><svg><g><svg></svg></g><g></g></svg></g><g id="text-0"><svg viewBox="0 0 395.52236057810524 59.056999999999995" height="59.056999999999995" width="395.52236057810524"><g transform="matrix(1,0,0,1,0,5.818411722438924)"><svg width="316.416" viewBox="2.5 -36.25 243.53 36.5" height="47.42017655512215" data-palette-color="#030303"><path d="M18.55-34.95L28.3-35Q28.3-34.95 28.35-34.25L28.35-34.25 24.1-33.85 11.95-19.7 26.75-0.9 29.1-0.75Q29.1-0.7 29.05 0L29.05 0 23.65 0.05 9.2-18.2 9.15-18.25 9.15-0.95 12.55-0.75Q12.55-0.7 12.5 0L12.5 0 2.5 0.05Q2.5-0.4 2.55-0.65L2.55-0.65 5.15-1Q5.65-1.05 5.75-1.65L5.75-1.65 5.75-33.3Q5.55-33.9 5.15-33.95L5.15-33.95 2.55-34.2Q2.5-34.5 2.5-34.95L2.5-34.95 12.5-35Q12.5-34.95 12.55-34.25L12.55-34.25 9.15-33.95 9.15-18.3 9.25-18.35 21.5-33Q21.9-33.8 21.2-33.95L21.2-33.95 18.6-34.2Q18.55-34.5 18.55-34.95L18.55-34.95ZM9.15-18.25L9.15-18.3 9.15-18.25ZM37.9-22.95L37.9-22.95 37.9-1 41.65-0.75Q41.65-0.7 41.6 0L41.6 0 31.6 0.05Q31.6-0.4 31.65-0.65L31.65-0.65 34.25-1Q34.55-1 34.65-1.45L34.65-1.45 34.65-23.4Q34.55-23.75 34.35-23.75L34.35-23.75 31.35-23.85 31.4-24.55Q34.1-25 35.5-25 36.9-25 37.4-24.35 37.9-23.7 37.9-22.95ZM36.2-31.7Q35.2-31.7 34.65-32.33 34.1-32.95 34.1-33.98 34.1-35 34.67-35.63 35.25-36.25 36.25-36.25 37.25-36.25 37.87-35.63 38.5-35 38.5-33.93 38.5-32.85 37.85-32.27 37.2-31.7 36.2-31.7ZM76.44-24.95L86.45-25Q86.45-24.95 86.5-24.25L86.5-24.25 83.59-23.95 81.8-23.55 72.84 0 69.84 0 64-19.8 57.25 0 54.25 0 46.45-23.35Q46.15-23.9 45.7-23.95L45.7-23.95 43.09-24.2Q43.05-24.5 43.05-24.95L43.05-24.95 53.55-25Q53.55-24.95 53.59-24.25L53.59-24.25 50-24 56.75-1.6 64.05-24.75 65.75-25 72.09-0.8 79.95-23.2Q80.09-23.5 79.8-23.7 79.5-23.9 79.09-23.95L79.09-23.95 76.5-24.2Q76.44-24.5 76.44-24.95L76.44-24.95ZM92.89-22.95L92.89-22.95 92.89-1 96.64-0.75Q96.64-0.7 96.59 0L96.59 0 86.59 0.05Q86.59-0.4 86.64-0.65L86.64-0.65 89.24-1Q89.54-1 89.64-1.45L89.64-1.45 89.64-23.4Q89.54-23.75 89.34-23.75L89.34-23.75 86.34-23.85 86.39-24.55Q89.09-25 90.49-25 91.89-25 92.39-24.35 92.89-23.7 92.89-22.95ZM91.19-31.7Q90.19-31.7 89.64-32.33 89.09-32.95 89.09-33.98 89.09-35 89.67-35.63 90.24-36.25 91.24-36.25 92.24-36.25 92.87-35.63 93.49-35 93.49-33.93 93.49-32.85 92.84-32.27 92.19-31.7 91.19-31.7ZM104.09-33.95L101.44-34.25 101.49-35 122.89-35 122.84-34.85 123.49-27.8 122.49-27.4 121.69-34 108.09-34 108.09-17.85 120.04-17.85Q120.29-17.8 120.49-17.98 120.69-18.15 120.69-18.45L120.69-18.45 120.89-21.9 121.69-22 121.69-13.45Q121.64-13.45 120.94-13.4L120.94-13.4 120.74-16.85 108.09-16.85 108.09-1 123.04-1 123.99-9 124.94-8.75 124.19 0 111.49 0 101.44 0.05 101.49-0.65 104.09-1Q104.59-1.05 104.69-1.65L104.69-1.65 104.69-33.3Q104.59-33.9 104.09-33.95L104.09-33.95ZM135.29-0.6L135.29-0.6Q135.59-0.6 135.89-0.65L135.89-0.65Q138.49-0.7 140.24-2.27 141.99-3.85 141.99-6.9L141.99-6.9Q141.99-9.9 137.29-11.25L137.29-11.25Q135.34-11.8 133.39-12.45 131.44-13.1 130.06-14.5 128.69-15.9 128.69-18.15L128.69-18.15Q128.69-21.35 131.14-23.28 133.59-25.2 137.34-25.2L137.34-25.2Q140.14-25.2 142.99-24.2L142.99-24.2 143.89-23.85 143.89-18.1 142.94-17.75 142.74-22Q139.84-24.3 137.89-24.3L137.89-24.3Q135.14-24.3 133.54-22.68 131.94-21.05 131.94-18.35L131.94-18.35Q131.94-16.8 133.31-15.85 134.69-14.9 136.64-14.35 138.59-13.8 140.54-13.13 142.49-12.45 143.86-10.93 145.24-9.4 145.24-6.95L145.24-6.95Q145.24-3.65 142.76-1.73 140.29 0.2 135.74 0.2 131.19 0.2 128.19-1.95L128.19-1.95 128.19-7.7 129.09-8.05 129.34-3.8Q130.04-2.5 131.86-1.55 133.69-0.6 135.29-0.6ZM159.54-0.95L159.54-0.95 161.49-1.05 161.64-0.55Q161.59-0.55 160.94-0.4L160.94-0.4Q159.44-0.05 157.59-0.05L157.59-0.05Q155.89-0.15 154.49-0.63 153.09-1.1 151.89-2.63 150.69-4.15 150.69-6.55L150.69-6.55 150.69-24.1 148.14-24.1 148.54-24.5 150.74-24.95 151.14-29.75 153.94-30 153.94-25 159.99-25 159.99-24.1 153.94-24.1 153.94-7.4Q153.94-3.6 155.54-2.27 157.14-0.95 159.54-0.95ZM180.43-1.9L180.43-1.9 180.28-1.9Q175.78 0.2 171.53 0.2L171.53 0.2Q164.88 0.2 164.48-5.05L164.48-5.05Q164.43-5.4 164.43-5.7L164.43-5.7Q164.43-9.55 169.48-10.85L169.48-10.85Q172.48-11.5 180.28-12.4L180.28-12.4 180.28-16.8Q180.28-18.9 179.78-20.4 179.28-21.9 178.68-22.63 178.08-23.35 177.13-23.75L177.13-23.75Q175.93-24.25 174.46-24.25 172.98-24.25 171.08-23.5L171.08-23.5Q168.33-22.35 166.18-20.6L166.18-20.6 165.98-16.7 165.03-16.45 165.03-22.5 165.53-22.7Q169.43-24.4 171.48-24.75 173.53-25.1 174.48-25.13 175.43-25.15 176.31-25.1 177.18-25.05 178.58-24.65 179.98-24.25 181.01-23.53 182.03-22.8 182.78-21.35 183.53-19.9 183.53-17.9L183.53-17.9 183.53-2.6Q183.53-1.05 184.33-1.05L184.33-1.05 187.38-0.9 187.33-0.15Q184.53 0.25 182.33 0.25L182.33 0.25Q181.73 0.2 181.08-0.38 180.43-0.95 180.43-1.9ZM172.43-0.6L172.43-0.6Q176.13-0.6 180.28-3.2L180.28-3.2 180.28-11.45Q172.78-11.2 170.86-10.58 168.93-9.95 168.21-8.63 167.48-7.3 167.48-6L167.48-6Q167.48-5.75 167.48-5.5L167.48-5.5Q167.63-2.9 169.03-1.75 170.43-0.6 172.43-0.6ZM199.78-0.95L199.78-0.95 201.73-1.05 201.88-0.55Q201.83-0.55 201.18-0.4L201.18-0.4Q199.68-0.05 197.83-0.05L197.83-0.05Q196.13-0.15 194.73-0.63 193.33-1.1 192.13-2.63 190.93-4.15 190.93-6.55L190.93-6.55 190.93-24.1 188.38-24.1 188.78-24.5 190.98-24.95 191.38-29.75 194.18-30 194.18-25 200.23-25 200.23-24.1 194.18-24.1 194.18-7.4Q194.18-3.6 195.78-2.27 197.38-0.95 199.78-0.95ZM207.18-11.5L207.18-11.5Q207.18-0.7 215.58-0.7L215.58-0.7Q217.78-0.7 220.28-1.18 222.78-1.65 223.48-2.05L223.48-2.05 223.83-1.55Q222.68-0.8 220.05-0.3 217.43 0.2 215.25 0.2 213.08 0.2 211.35-0.25 209.63-0.7 207.83-1.85 206.03-3 204.98-5.45 203.93-7.9 203.93-11.45L203.93-11.45Q203.93-18.05 207.33-21.55L207.33-21.55Q210.88-25.2 215.58-25.2 220.28-25.2 222.75-22.6 225.23-20 225.23-15.3L225.23-15.3Q225.23-14.3 225.08-13.15L225.08-13.15 207.23-13.15Q207.18-12.6 207.18-11.5ZM222.28-15.65L222.28-15.65Q222.28-19.4 220.63-21.78 218.98-24.15 216.13-24.15L216.13-24.15Q212.43-24.15 209.88-20.9L209.88-20.9Q207.83-18.35 207.33-14.1L207.33-14.1 222.23-14.1Q222.28-14.65 222.28-15.65ZM236.08-0.6L236.08-0.6Q236.38-0.6 236.68-0.65L236.68-0.65Q239.28-0.7 241.03-2.27 242.78-3.85 242.78-6.9L242.78-6.9Q242.78-9.9 238.08-11.25L238.08-11.25Q236.13-11.8 234.18-12.45 232.23-13.1 230.85-14.5 229.48-15.9 229.48-18.15L229.48-18.15Q229.48-21.35 231.93-23.28 234.38-25.2 238.13-25.2L238.13-25.2Q240.93-25.2 243.78-24.2L243.78-24.2 244.68-23.85 244.68-18.1 243.73-17.75 243.53-22Q240.63-24.3 238.68-24.3L238.68-24.3Q235.93-24.3 234.33-22.68 232.73-21.05 232.73-18.35L232.73-18.35Q232.73-16.8 234.1-15.85 235.48-14.9 237.43-14.35 239.38-13.8 241.33-13.13 243.28-12.45 244.65-10.93 246.03-9.4 246.03-6.95L246.03-6.95Q246.03-3.65 243.55-1.73 241.08 0.2 236.53 0.2 231.98 0.2 228.98-1.95L228.98-1.95 228.98-7.7 229.88-8.05 230.13-3.8Q230.83-2.5 232.65-1.55 234.48-0.6 236.08-0.6Z" opacity="1" transform="matrix(1,0,0,1,0,0)" fill="#030303" class="wordmark-text-0" data-fill-palette-color="primary"></path></svg></g><g><svg version="1.1" xmlns="http://www.w3.org/2000/svg" xmlns:xlink="http://www.w3.org/1999/xlink" x="330.359" y="0" viewBox="0.0011233898233357006 0 99.99887661017667 90.62813218309498" enable-background="new 0 0 100 90.626" xml:space="preserve" width="65.16336057810526" height="59.056999999999995" class="icon-cg-0" data-fill-palette-color="accent" id="cg-0"><g fill="#030303" data-fill-palette-color="accent"><path fill="#030303" d="M9.176 38.663c-0.422-0.555-1.816-2.842-1.816-6.75 0-7.607 5.119-12.77 10.329-12.77 2.459 0 3.684 0.422 4.185 0.532C23.05 18.252 37.245 0 60.563 0 79.959 0 100 8.007 100 35.917c0 15.043-9.376 25.207-15.837 27.644-2.795 1.055-3.2 3.028-3.202 4.603-0.001 1.603 0.212 5.215 0.588 7.997 0.187 1.375 2.323 2.197 3.694 4.141 1.373 1.945 2.119 3.23 2.359 5.223 0.187 1.53 0 1.944-1.101 0.496-1.111-1.459-3.386-5.06-8.49-5.06-0.415 0-1.462-0.315-2.835 1.057s-3.318 3.656-4.003 3.89c-0.94 0.318-2.976 2.173-3.774 3.431-0.801 1.258-1.259 1.972-1.259 0.343 0-1.605 0.066-2.833 1.944-5.262 1.891-2.444 3.083-3.866 3.431-4.232-2.969 0.908-5.248 0.801-8.921 2.975-1.283 0.759-1.566 0.522-0.497-0.934 1.197-1.632 2.382-2.666 5.3-3.871 2.75-1.134 6.483-1.593 7.352-1.727 0.806-0.124 1.673-1.157 1.876-3.117 0.153-1.479 0.518-6.142-0.19-7.854-0.445-1.076-3.453-1.588-6.177-7.436-1.177 0.725-3.833 1.814-6.114 2.405-1.059 0.272-1.312 3.834-1.436 6.403-0.125 2.629 0.344 6.406 0.458 7.435 0.114 1.03 0.334 1.61-0.867 2.188-3.242 1.563-3.074 2.556-5.022 4.526-1.638 1.657-2.213 2.941-2.48 3.587-0.43 1.037-0.664 0.439-0.653-0.504 0.017-1.581 0.259-3.623 1.146-5.238-2.09 0.906-4.571 1.974-6.287 2.432-1.716 0.458-3.67 0.162-5.802 0.924-1.777 0.635-1.845 0.803-2.76 1.146-0.915 0.342-0.489-0.424 0.62-1.488 0.994-0.956 4.578-2.76 6.522-3.331 1.944-0.572 4.306-1.916 4.736-2.169-0.631-0.736-2.559-1.139-4.278-1.139-1.012 0-2.123 0.104-3.153 0.22-0.876 0.097-1-0.212 0.442-1.165 1.561-1.03 4.815-1.006 6.417-1.006 1.602 0 3.23 0.097 4.398 0.097 0.889 0 1.778-0.827 2.108-2.998 0.271-1.778 0.623-6.604 0.631-9.012-1.965-1.298-7.749-3.644-7.749-14.233-2.602-5.093-5.935-6.019-9.397-6.019-5.114 0-7.254 4.294-18.529 0.592-2.155-0.708-4.29-0.328-7.179 2.13-4.605 3.92-10.362 13.335-12.646 21.609-1.359 4.92-2.075 9.82-2.703 9.82-0.917 0-0.736-4.135-0.438-6.265C1.839 57.775 5.763 46.035 9.176 38.663z" data-fill-palette-color="accent"></path></g></svg></g></svg></g></svg></g></svg></g></svg></g><g></g></svg></g></svg></g></svg></g><defs></defs></svg><rect width="375.07953" height="135.014464" fill="none" stroke="none" visibility="hidden"></rect></g></svg></g></svg>