<svg xmlns="http://www.w3.org/2000/svg" viewBox="0 0 45.575932757259935 41.3050806" height="41.3050806" width="45.575932757259935"><g><svg viewBox="0 0 45.575932757259935 41.3050806" height="41.3050806" width="45.575932757259935"><g><svg viewBox="0 0 45.575932757259935 41.3050806" height="41.3050806" width="45.575932757259935"><g id="textblocktransform"><svg viewBox="0 0 45.575932757259935 41.3050806" height="41.3050806" width="45.575932757259935" id="textblock"><g><svg viewBox="0 0 45.575932757259935 41.3050806" height="41.3050806" width="45.575932757259935"><g><svg viewBox="0 0 45.575932757259935 41.3050806" height="41.3050806" width="45.575932757259935"><g><svg xmlns="http://www.w3.org/2000/svg" xmlns:xlink="http://www.w3.org/1999/xlink" version="1.1" x="0" y="0" viewBox="0.0011233898233357006 0 99.99887661017667 90.62813218309498" enable-background="new 0 0 100 90.626" xml:space="preserve" width="45.575932757259935" height="41.3050806" class="icon-icon-0" data-fill-palette-color="accent" id="icon-0"><g fill="#030303" data-fill-palette-color="accent"><path fill="#000000" d="M9.176 38.663c-0.422-0.555-1.816-2.842-1.816-6.75 0-7.607 5.119-12.77 10.329-12.77 2.459 0 3.684 0.422 4.185 0.532C23.05 18.252 37.245 0 60.563 0 79.959 0 100 8.007 100 35.917c0 15.043-9.376 25.207-15.837 27.644-2.795 1.055-3.2 3.028-3.202 4.603-0.001 1.603 0.212 5.215 0.588 7.997 0.187 1.375 2.323 2.197 3.694 4.141 1.373 1.945 2.119 3.23 2.359 5.223 0.187 1.53 0 1.944-1.101 0.496-1.111-1.459-3.386-5.06-8.49-5.06-0.415 0-1.462-0.315-2.835 1.057s-3.318 3.656-4.003 3.89c-0.94 0.318-2.976 2.173-3.774 3.431-0.801 1.258-1.259 1.972-1.259 0.343 0-1.605 0.066-2.833 1.944-5.262 1.891-2.444 3.083-3.866 3.431-4.232-2.969 0.908-5.248 0.801-8.921 2.975-1.283 0.759-1.566 0.522-0.497-0.934 1.197-1.632 2.382-2.666 5.3-3.871 2.75-1.134 6.483-1.593 7.352-1.727 0.806-0.124 1.673-1.157 1.876-3.117 0.153-1.479 0.518-6.142-0.19-7.854-0.445-1.076-3.453-1.588-6.177-7.436-1.177 0.725-3.833 1.814-6.114 2.405-1.059 0.272-1.312 3.834-1.436 6.403-0.125 2.629 0.344 6.406 0.458 7.435 0.114 1.03 0.334 1.61-0.867 2.188-3.242 1.563-3.074 2.556-5.022 4.526-1.638 1.657-2.213 2.941-2.48 3.587-0.43 1.037-0.664 0.439-0.653-0.504 0.017-1.581 0.259-3.623 1.146-5.238-2.09 0.906-4.571 1.974-6.287 2.432-1.716 0.458-3.67 0.162-5.802 0.924-1.777 0.635-1.845 0.803-2.76 1.146-0.915 0.342-0.489-0.424 0.62-1.488 0.994-0.956 4.578-2.76 6.522-3.331 1.944-0.572 4.306-1.916 4.736-2.169-0.631-0.736-2.559-1.139-4.278-1.139-1.012 0-2.123 0.104-3.153 0.22-0.876 0.097-1-0.212 0.442-1.165 1.561-1.03 4.815-1.006 6.417-1.006 1.602 0 3.23 0.097 4.398 0.097 0.889 0 1.778-0.827 2.108-2.998 0.271-1.778 0.623-6.604 0.631-9.012-1.965-1.298-7.749-3.644-7.749-14.233-2.602-5.093-5.935-6.019-9.397-6.019-5.114 0-7.254 4.294-18.529 0.592-2.155-0.708-4.29-0.328-7.179 2.13-4.605 3.92-10.362 13.335-12.646 21.609-1.359 4.92-2.075 9.82-2.703 9.82-0.917 0-0.736-4.135-0.438-6.265C1.839 57.775 5.763 46.035 9.176 38.663z" data-fill-palette-color="accent"/></g></svg></g></svg></g></svg></g></svg></g></svg></g><g/></svg></g></svg>